<svg xmlns="http://www.w3.org/2000/svg" viewBox="0 0 512 512" id="social-media">
  <g>
    <path fill="#676767" d="M342.88 129.39c-5.74-4.33-31.53-23.15-70.93-29.91a183.66 183.66 0 0 0-52.78-.78s-2 .24-3.79.5c-23.75 3.4-61.85 21.73-81.16 38.66-38.89 34.13-75.85 127.87-21.13 197C149.26 380.57 214 401 276.81 386.75c34.42 4.14 62.78-10.41 66.9-12.59 41.32-22 52.48-63.14 56.91-79.49 10.08-37.23 1.6-67.85-2.48-81.85-4.43-15.23-16.35-54.06-55.26-83.43Z"></path>
    <path fill="#010101" d="M274.72 387.23a68.92 68.92 0 0 0 26.42-2.23c4.14-1.13 8.46-2.35 12.11-4.58a21.14 21.14 0 0 0 8.61-9.94c3.18-7.38 1.59-16.16-1.51-23.31-3.44-7.93-9-15.56-16.36-20.59-7.18-4.87-16-4.23-23.69-1a76.83 76.83 0 0 0-8.75 4.62c-1.37.79-2.74 1.59-4.15 2.34-.7.38-1.4.74-2.12 1.08l-.91.41c-1.13.52.86-.29-.27.12-.64.23-1.29.46-2 .64-.35.09-.7.18-1.05.25l-.45.09c-.79.18.4-.13.48 0a15.82 15.82 0 0 0-2.12.09c-.83 0-.42-.17.18.06A11.45 11.45 0 0 0 258 335l-.56-.16c-.67-.17-.93-.69.54.25-.34-.22-.75-.39-1.11-.59-.93-.52 1 .83.45.33-.2-.19-.42-.36-.62-.55s-.36-.38-.54-.57c-.86-.92.58.81.12.16a38.92 38.92 0 0 1-2.65-4.31c-.55-1.06-1.08-2.13-1.58-3.2-.28-.58-.55-1.17-.81-1.76-.08-.17-.58-1.32-.26-.57s-.2-.45-.28-.65c-1.53-3.53-3-7.09-4.37-10.67-2.28-5.78-4.5-11.58-6.59-17.42a422 422 0 0 1-13.22-44.86c-1.15-4.85-2.25-9.72-3.21-14.61-.18-.93-.35-1.86-.52-2.79-.07-.45-.15-.91-.22-1.36l-.09-.56c-.11-.69-.08 0 0 .26a7.31 7.31 0 0 1-.25-2.25c0-.65-.09-1.31-.09-2v-1.61a5.16 5.16 0 0 0 .08-.79c0-.08-.23 1.25-.1.79 0-.16.06-.35.1-.51a10.66 10.66 0 0 1 .35-1.26c.07-.18.15-.36.21-.55 0 0-.61 1.17-.11.31.22-.37.42-.74.66-1.1s.94-1.08.45-.65.52-.5.66-.64.54-.43.77-.67c.41-.43-.41.33-.39.26a2.87 2.87 0 0 1 .56-.38 17.23 17.23 0 0 1 2.07-1.13c.15-.07.31-.13.46-.21.62-.31-.95.32-.29.12.34-.09.66-.23 1-.34.84-.27 1.7-.5 2.56-.69 1.62-.37 3.26-.64 4.9-.88a104 104 0 0 0 10.26-1.69c7.54-1.84 13.9-6.26 17.06-13.17 6.23-13.62 2.42-31.59-8.75-41.94-12.23-11.33-33.11-12.3-47.52-4.25-11.07 6.19-17.81 17.24-22.18 28.41-5.12 13.09-7.2 27.28-8.08 41.17a219.81 219.81 0 0 0 1.46 42c.86 6.64 2 13.24 3.43 19.79a238 238 0 0 0 6.34 23.18A216.57 216.57 0 0 0 200.63 341a161 161 0 0 0 19.9 30.44 119 119 0 0 0 28.85 25.22 106.84 106.84 0 0 0 45.6 15.2 120.47 120.47 0 0 0 49.4-6 110.69 110.69 0 0 0 28.56-14 112 112 0 0 0 31.35-33.43 145.56 145.56 0 0 0 14.4-32.38c4.37-13.94 7.32-28.25 7.79-42.84a156.73 156.73 0 0 0-5.24-44.21 217 217 0 0 0-8.24-25.91 161.37 161.37 0 0 0-20.07-36.52 153.44 153.44 0 0 0-33.49-33.13A157.82 157.82 0 0 0 331 127.32 172.66 172.66 0 0 0 285.38 114a189.41 189.41 0 0 0-48.75-.53 233.27 233.27 0 0 0-28.17 5A184.44 184.44 0 0 0 164 135.23a120 120 0 0 0-35.35 28.94 141.75 141.75 0 0 0-21.94 37.33 164.14 164.14 0 0 0-10.62 42.68 172.14 172.14 0 0 0 .87 45.12 158.82 158.82 0 0 0 13 43.29 143 143 0 0 0 27.8 40.12 159.81 159.81 0 0 0 39 28.75 193.59 193.59 0 0 0 31.44 13.14 5.3 5.3 0 0 0 6.42-3.48A5.08 5.08 0 0 0 211 405c-2.17-.7-4.34-1.43-6.48-2.2-1.22-.44-2.43-.89-3.64-1.35l-1.83-.71c-.29-.11-.57-.24-.87-.34 1.06.36.35.14-.21-.09a179.33 179.33 0 0 1-17.27-8.18 163 163 0 0 1-18.79-11.87l-.35-.26-1.23-.94c-.83-.63-1.64-1.27-2.46-1.92q-2.38-1.92-4.7-3.93-4.78-4.17-9.19-8.74a144.53 144.53 0 0 1-6.36-7.1c-.37-.44-.74-.89-1.1-1.34.44.55-.46-.57-.6-.76a137.1 137.1 0 0 1-6.89-9.57 141.22 141.22 0 0 1-10.56-19.25c-.15-.34-.61-1.4-.21-.47l-.49-1.12c-.37-.87-.73-1.74-1.09-2.62q-1-2.53-2-5.1c-1.24-3.42-2.36-6.89-3.35-10.38s-1.87-7-2.61-10.58c-.38-1.78-.72-3.56-1-5.35-.15-.86-.29-1.72-.43-2.59-.06-.4-.13-.79-.19-1.19s-.08-.53-.11-.8-.15-1 0-.34-.08-.55-.1-.73l-.18-1.4a162.735 162.735 0 0 1-.8-8.22c-.26-3.6-.4-7.22-.43-10.83a166.78 166.78 0 0 1 1.24-21.54c.1-.85.22-1.7.33-2.56-.12.9 0 .22 0-.25s.15-1 .24-1.57a179 179 0 0 1 .87-5.07q1-5.22 2.32-10.37a155.22 155.22 0 0 1 6.52-19.94c.31-.77.64-1.54 1-2.31.17-.41.35-.82.53-1.23-.4.93 0 0 .18-.39.72-1.56 1.46-3.12 2.23-4.66q2.28-4.59 4.91-9c1.73-2.9 3.58-5.75 5.53-8.52q1.45-2.06 3-4.06l1.49-1.9c.61-.76-.49.6.13-.15l.95-1.14a112.82 112.82 0 0 1 14.1-14.07c1.45-1.21 2.94-2.36 4.44-3.5.46-.36 0 0-.11.07l.57-.42 1.35-.95q1.35-.94 2.73-1.86 5.25-3.45 10.84-6.4c3.62-1.92 7.32-3.68 11.09-5.31l2.47-1 .82-.33-.23.09 1.43-.56q2.82-1.1 5.67-2.1a206 206 0 0 1 20.16-5.9q7.88-1.89 15.9-3.21c1.8-.29 3.61-.57 5.43-.81l1-.14h.42c.95-.13-1.29.16-.75.09 1.38-.17 2.76-.34 4.14-.49a194.44 194.44 0 0 1 28-1q5.24.2 10.46.7c1.39.13 2.77.29 4.15.45.85.1.28 0-.3 0l.89.12 1.61.22a166.57 166.57 0 0 1 21 4.55q6.15 1.75 12.13 3.94l2.76 1 1.46.57c.07 0 .76.3.19.08l.6.24c1.69.7 3.38 1.42 5.05 2.17a157.71 157.71 0 0 1 27.7 15.69l.79.58-.57-.42.34.25c1.28 1 2.54 1.93 3.78 2.93q5.31 4.25 10.19 9 4.61 4.44 8.79 9.25 1 1.13 1.92 2.25l.86 1 .3.37.29.36c1.22 1.54 2.42 3.11 3.57 4.69a152.59 152.59 0 0 1 11.5 18.34q2.25 4.25 4.25 8.6l.42.92c.06.15.13.31.2.46.28.62-.39-.9-.12-.28l.9 2.08c.54 1.29 1.07 2.59 1.58 3.89a216.69 216.69 0 0 1 8 25c.73 2.8 1.4 5.6 2 8.43.33 1.59.64 3.19.92 4.79.15.81.28 1.62.42 2.44l.21 1.34c0 .2.05.39.08.59s.15 1 0 .32.1.78.13.94l.15 1.21c.12 1 .23 1.94.32 2.91q.3 2.91.48 5.84.39 6.28.21 12.59-.19 6.84-1.07 13.64c0 .27-.07.53-.11.79 0-.12.09-.6 0 0s-.19 1.24-.29 1.86c-.2 1.26-.41 2.51-.65 3.76-.47 2.48-1 5-1.61 7.4-1.07 4.36-2.3 8.7-3.64 13-1.5 4.81-3.21 9.56-5.17 14.22l-.81 1.89c-.27.61.41-.92.13-.31-.07.15-.13.3-.2.44-.15.35-.31.7-.47 1q-.94 2-1.95 4.05-2.13 4.23-4.58 8.29-2.58 4.27-5.54 8.35c-.49.67-1 1.33-1.5 2-.27.36-.55.72-.83 1.07l-.36.46c-.07.09-.61.77-.2.26s0 0-.09.1l-.5.61c-.25.3-.51.6-.76.91l-1.84 2.1a106 106 0 0 1-7.87 7.85q-2.16 1.92-4.42 3.72c-.74.59-1.49 1.17-2.24 1.74a3.18 3.18 0 0 1-.37.27l-1.45 1a97.52 97.52 0 0 1-13.69 8c-1.83.88-3.68 1.69-5.55 2.46l-.76.31.46-.18-.4.15c-.65.26-1.3.51-2 .75-1.38.52-2.77 1-4.17 1.48a125.57 125.57 0 0 1-21.09 5.07l-1.35.19c-1 .15.61-.06-.43.06s-2.17.25-3.26.35q-3.36.31-6.74.42a104.83 104.83 0 0 1-13.5-.41l-1.84-.19-.73-.09c-1.25-.17-2.5-.36-3.74-.58-2.47-.42-4.91-.95-7.33-1.56A101.74 101.74 0 0 1 270.8 396l-1.21-.47c-.52-.2-.93-.38-.13 0l-2.36-1q-2.25-1-4.44-2.08-4.31-2.15-8.39-4.67-2-1.26-3.95-2.59c-.63-.42-1.24-.86-1.85-1.29-.33-.24-.67-.46-1-.72.79.64.24.18-.19-.15q-3.69-2.79-7.13-5.89a121.15 121.15 0 0 1-12.54-13.1l-.64-.77.3.37a4.33 4.33 0 0 1-.42-.52c-.48-.6-.95-1.21-1.42-1.82-.91-1.17-1.79-2.36-2.66-3.56q-2.58-3.57-4.93-7.27-4.56-7.17-8.36-14.73c-1.24-2.46-2.43-4.93-3.56-7.43-.14-.32-.28-.64-.43-1-.41-.91.17.39 0 .1-.28-.64-.56-1.27-.83-1.9-.51-1.21-1-2.42-1.51-3.64q-2.79-6.88-5.1-13.94a235.36 235.36 0 0 1-6.26-22.85c-.56-2.51-1.07-5-1.54-7.57-.16-.85-.31-1.7-.46-2.54-.17-1-.34-2-.5-3-.12-.74-.23-1.48-.34-2.22-.05-.35-.12-.7-.15-1.05.11 1.17 0 .07-.06-.43a220.29 220.29 0 0 1-1.64-41c.18-3.51.47-7 .85-10.51.1-.83.19-1.66.3-2.5.05-.44.11-.89.17-1.33 0-.19.06-.38.08-.57 0 .36-.12.8 0 .18.25-1.69.51-3.38.82-5.06a112.32 112.32 0 0 1 5-18.89c.53-1.44 1.11-2.85 1.71-4.26.37-.88-.39.82 0 0 .17-.35.33-.71.49-1.06.33-.69.67-1.37 1-2.05a56.67 56.67 0 0 1 4.43-7.25c.39-.54.79-1.06 1.19-1.58.56-.72-.65.76-.05.07.26-.3.51-.61.77-.9a39.25 39.25 0 0 1 2.77-2.85c.46-.43.93-.85 1.42-1.25.23-.2 1.56-1 1.58-1.26 0 .27-1 .67-.13.11l.83-.56q.84-.55 1.71-1a39.56 39.56 0 0 1 3.58-1.76c-.83.37-.2.08.25-.08l1.35-.46c.93-.29 1.87-.55 2.83-.78s1.81-.39 2.73-.54c.43-.07 1.27-.18.33-.07.58-.07 1.16-.13 1.75-.17a41.16 41.16 0 0 1 5.77-.07q.78 0 1.56.12l.67.07c-.07 0-.89-.13-.28 0 1.11.18 2.21.36 3.3.62.87.2 1.73.44 2.58.71q.75.24 1.47.51l.63.23c-.46-.18-.47-.19 0 0 .87.4 1.74.82 2.57 1.29.45.26.9.52 1.33.8l.56.37c.08 0 .83.59.38.25s.61.5.77.63.59.5.87.76a25.91 25.91 0 0 1 1.88 1.9c.17.18 1 1.13.59.66s.3.4.41.55c.53.71 1 1.45 1.49 2.21s.84 1.43 1.22 2.16c.21.4.37.82.59 1.21s-.12-.28-.13-.32c.09.23.2.47.29.7a35.32 35.32 0 0 1 1.59 4.89q.28 1.2.51 2.4c0 .19.05.38.09.56.15.71-.1-.93 0-.21 0 .43.11.87.15 1.3a34.09 34.09 0 0 1 .09 4.95 7.85 7.85 0 0 1-.21 2.32s.18-1 .06-.45c-.05.23-.08.46-.12.69-.08.4-.16.79-.25 1.19-.17.72-.36 1.44-.59 2.14q-.18.57-.39 1.11l-.18.47c-.08.22-.45.7-.06.17s-.21.39-.31.58-.3.57-.47.85c-.37.65-.8 1.25-1.23 1.86s.65-.68 0 0c-.32.32-.61.66-.94 1s-.65.58-1 .88c-.09.08-.57.51-.06.06s-.1.07-.23.15a22 22 0 0 1-2.05 1.2l-1 .46c-.88.41.16 0 .23-.09a2.59 2.59 0 0 1-.69.26 52.17 52.17 0 0 1-9.93 2.08c-7 1-14.37 2-19.54 7-4.18 4.07-5.64 9.32-5.18 14.89.7 8.68 3 17.34 5.06 25.8a418.59 418.59 0 0 0 12.93 43.44c2 5.7 4.21 11.36 6.43 17 2.47 6.26 4.95 12.59 8 18.6 1.44 2.82 3.14 5.88 5.68 7.95a15.07 15.07 0 0 0 11.35 3.25c6.93-.73 12.66-4.56 18.51-7.87 1.41-.79 2.84-1.57 4.3-2.26l1.14-.52c.16-.07.33-.13.49-.21.54-.25-.43.18-.42.17a7.21 7.21 0 0 1 2.33-.79c.72-.21 1.46-.39 2.2-.53l.51-.09c1-.18-.34.08-.35 0l1.22-.08c.22 0 2.22-.14 2.31.07 0 0-1.09-.2-.49-.07l.72.13c.44.08.86.18 1.29.3s1 .3 1.43.46l-.14-.05.63.3c.47.24.92.49 1.37.77.18.12.36.25.55.36.65.38-.56-.48 0 0a59.46 59.46 0 0 1 4.48 4.21q.92.95 1.77 2l.4.48c-.12-.15-.61-.79 0 0 .3.39.6.78.88 1.18a44.94 44.94 0 0 1 3.08 4.92c.45.83.85 1.68 1.26 2.53.25.52-.06-.14-.09-.2l.33.79q.29.71.54 1.41a34.72 34.72 0 0 1 1.5 5.48c.09.43.18 1.19.07.29.06.47.11.93.15 1.4a25.61 25.61 0 0 1 .06 2.77c0 .39-.05.77-.08 1.16 0 .17-.1 1 0 .29s0 0 0 .09a19.06 19.06 0 0 1-.65 2.55c-.12.35-.26.69-.39 1 .42-1.15-.05 0-.2.33a15.67 15.67 0 0 1-1.37 2.06c.54-.69.07-.12-.23.19s-.66.62-1 .93c-.14.13-.31.24-.45.37 0 0 .76-.48.27-.2s-.76.52-1.15.75a22.5 22.5 0 0 1-2.34 1.21l-.57.25s.83-.31.26-.11-.95.36-1.43.52c-1.92.66-3.88 1.21-5.85 1.74-2.25.61-4.5 1.17-6.8 1.57-.63.11-1.25.2-1.88.29.79-.11-.47.05-.7.07-1.07.12-2.15.2-3.23.25a63.16 63.16 0 0 1-10.56-.39c-2.72-.32-5.33 2.52-5.22 5 .14 3 2.31 4.63 5.22 5Z"></path>
  </g>
</svg>
